<mxfile host="app.diagrams.net" modified="2024-01-21T02:23:02.445Z" agent="Mozilla/5.0 (Windows NT 10.0; Win64; x64) AppleWebKit/537.36 (KHTML, like Gecko) Chrome/120.0.0.0 Safari/537.36 Edg/120.0.0.0" etag="7bd4gnfc8NMl64Y1i9ok" version="22.1.21" type="device">
  <diagram name="Page-1" id="0w4y4VBjiZVZpmqz1iy4">
    <mxGraphModel dx="996" dy="617" grid="1" gridSize="10" guides="1" tooltips="1" connect="1" arrows="1" fold="1" page="1" pageScale="1" pageWidth="827" pageHeight="1169" math="0" shadow="0">
      <root>
        <mxCell id="0" />
        <mxCell id="1" parent="0" />
      </root>
    </mxGraphModel>
  </diagram>
</mxfile>
